<?xml version="1.0" encoding="UTF-8" standalone="no"?>
<!-- Generator: Adobe Illustrator 22.1.0, SVG Export Plug-In . SVG Version: 6.00 Build 0)  -->

<svg
   xmlns:dc="http://purl.org/dc/elements/1.1/"
   xmlns:cc="http://creativecommons.org/ns#"
   xmlns:rdf="http://www.w3.org/1999/02/22-rdf-syntax-ns#"
   xmlns:svg="http://www.w3.org/2000/svg"
   xmlns="http://www.w3.org/2000/svg"
   xmlns:sodipodi="http://sodipodi.sourceforge.net/DTD/sodipodi-0.dtd"
   xmlns:inkscape="http://www.inkscape.org/namespaces/inkscape"
   version="1.1"
   id="Layer_1"
   x="0px"
   y="0px"
   viewBox="0 0 504.23727 501.21185"
   xml:space="preserve"
   sodipodi:docname="icon-facebook.svg"
   width="504.23727"
   height="501.21185"
   inkscape:version="0.92.4 (5da689c313, 2019-01-14)"><metadata
   id="metadata15"><rdf:RDF><cc:Work
       rdf:about=""><dc:format>image/svg+xml</dc:format><dc:type
         rdf:resource="http://purl.org/dc/dcmitype/StillImage" /><dc:title></dc:title></cc:Work></rdf:RDF></metadata><defs
   id="defs13" /><sodipodi:namedview
   pagecolor="#ffffff"
   bordercolor="#666666"
   borderopacity="1"
   objecttolerance="10"
   gridtolerance="10"
   guidetolerance="10"
   inkscape:pageopacity="0"
   inkscape:pageshadow="2"
   inkscape:window-width="1858"
   inkscape:window-height="1057"
   id="namedview11"
   showgrid="false"
   inkscape:zoom="0.921875"
   inkscape:cx="-1.210112"
   inkscape:cy="222.20554"
   inkscape:window-x="54"
   inkscape:window-y="-8"
   inkscape:window-maximized="1"
   inkscape:current-layer="Layer_1" />
<g
   id="g8"
   transform="matrix(1.1205273,0,0,1.1205273,-34.736346,-37.089454)"
   style="fill:#b3b3b3">
	<title
   id="title2">facebook</title>
	<g
   id="g6"
   style="fill:#b3b3b3">
		<path
   d="m 481,258.1 c 0,-124.3 -100.8,-225 -225,-225 -124.3,0 -225,100.7 -225,225 0,112.3 82.3,205.4 189.8,222.2 V 323.1 h -57.1 v -65 h 57.1 v -49.6 c 0,-56.4 33.5,-87.5 85,-87.5 24.6,0 50.4,4.4 50.4,4.4 v 55.4 h -28.4 c -27.9,0 -36.6,17.4 -36.6,35.2 v 42.2 h 62.4 l -10,65 H 291.2 V 480.4 C 398.7,463.4 481,370.3 481,258.1 Z"
   id="path4"
   inkscape:connector-curvature="0"
   style="fill:#b3b3b3" />
	</g>
</g>
</svg>