<?xml version="1.0" encoding="UTF-8" standalone="no"?>
<!-- Generator: Adobe Illustrator 22.1.0, SVG Export Plug-In . SVG Version: 6.00 Build 0)  -->

<svg
   xmlns:dc="http://purl.org/dc/elements/1.1/"
   xmlns:cc="http://creativecommons.org/ns#"
   xmlns:rdf="http://www.w3.org/1999/02/22-rdf-syntax-ns#"
   xmlns:svg="http://www.w3.org/2000/svg"
   xmlns="http://www.w3.org/2000/svg"
   xmlns:sodipodi="http://sodipodi.sourceforge.net/DTD/sodipodi-0.dtd"
   xmlns:inkscape="http://www.inkscape.org/namespaces/inkscape"
   version="1.1"
   id="Layer_1"
   x="0px"
   y="0px"
   viewBox="0 0 505.99298 506.21618"
   xml:space="preserve"
   sodipodi:docname="icon-linkedin.svg"
   width="505.99298"
   height="506.21619"
   inkscape:version="0.92.4 (5da689c313, 2019-01-14)"><metadata
   id="metadata15"><rdf:RDF><cc:Work
       rdf:about=""><dc:format>image/svg+xml</dc:format><dc:type
         rdf:resource="http://purl.org/dc/dcmitype/StillImage" /><dc:title></dc:title></cc:Work></rdf:RDF></metadata><defs
   id="defs13" /><sodipodi:namedview
   pagecolor="#ffffff"
   bordercolor="#666666"
   borderopacity="1"
   objecttolerance="10"
   gridtolerance="10"
   guidetolerance="10"
   inkscape:pageopacity="0"
   inkscape:pageshadow="2"
   inkscape:window-width="1858"
   inkscape:window-height="1057"
   id="namedview11"
   showgrid="false"
   inkscape:zoom="0.921875"
   inkscape:cx="227.79443"
   inkscape:cy="122.95196"
   inkscape:window-x="54"
   inkscape:window-y="-8"
   inkscape:window-maximized="1"
   inkscape:current-layer="Layer_1" />

<path
   style="fill:#b3b3b3;stroke-width:2.25821209"
   d="M 222.52367,505.01162 C 186.02719,500.37277 144.18941,485.07266 114.25923,465.41922 92.851251,451.36183 55.202379,413.74277 41.203902,392.42174 -16.541742,304.4696 -13.321713,187.33943 49.166316,102.78599 63.741718,83.063801 93.585982,54.713299 114.08663,41.115094 c 82.58455,-54.778896 195.20344,-54.824037 278.53558,-0.111782 20.01406,13.140379 58.63502,51.245403 70.82938,69.883178 29.69644,45.3878 42.54138,88.34397 42.54138,142.26736 0,72.39099 -23.34203,128.05892 -75.27752,179.52786 -36.3158,35.98956 -75.19808,57.64371 -121.74796,67.80336 -23.4502,5.11809 -64.76756,7.28158 -86.44382,4.52645 z M 190.71032,265.00955 190.12449,153.79261 157.94496,153.16604 125.76544,152.5395 V 264.38299 376.2265 h 32.76536 32.76536 z m 95.40307,40.64782 c 0.0135,-65.32674 0.33105,-71.0487 4.27096,-77.02468 11.44315,-17.35689 40.22397,-22.78274 52.269,-9.85394 4.20309,4.5115 4.41686,8.43608 4.41686,81.09434 v 76.35341 h 32.74408 32.74407 l -0.0393,-75.08555 c -0.0495,-94.78187 -2.3188,-107.94234 -22.22718,-128.90421 -9.7749,-10.29214 -16.57877,-14.12763 -30.65902,-17.28307 -14.72767,-3.30054 -37.06148,0.63115 -57.04086,10.04156 l -16.25043,7.65408 -0.68613,-9.42836 -0.68605,-9.42834 h -31.61497 -31.61497 l -0.58582,111.21694 -0.58585,111.21695 h 32.76537 32.76535 l 0.0158,-70.56913 z M 177.02078,135.2273 c 7.47516,-4.8979 12.51973,-15.51597 12.3744,-26.04623 -0.39898,-28.910269 -39.57786,-39.33888 -54.6883,-14.55689 -16.51643,27.08783 15.72446,58.02521 42.3139,40.60312 z"
   id="path3724"
   inkscape:connector-curvature="0" /></svg>