<?xml version="1.0" encoding="UTF-8" standalone="no"?>
<!-- Generator: Adobe Illustrator 13.0.0, SVG Export Plug-In . SVG Version: 6.00 Build 14948)  -->

<svg
   xmlns:dc="http://purl.org/dc/elements/1.1/"
   xmlns:cc="http://creativecommons.org/ns#"
   xmlns:rdf="http://www.w3.org/1999/02/22-rdf-syntax-ns#"
   xmlns:svg="http://www.w3.org/2000/svg"
   xmlns="http://www.w3.org/2000/svg"
   xmlns:sodipodi="http://sodipodi.sourceforge.net/DTD/sodipodi-0.dtd"
   xmlns:inkscape="http://www.inkscape.org/namespaces/inkscape"
   version="1.1"
   x="0px"
   y="0px"
   width="501.06781"
   height="501.06781"
   viewBox="0 0 501.06781 501.06781"
   enable-background="new 0 0 100 100"
   xml:space="preserve"
   id="svg27"
   sodipodi:docname="icon-email.svg"
   inkscape:version="0.92.4 (5da689c313, 2019-01-14)"><metadata
   id="metadata33"><rdf:RDF><cc:Work
       rdf:about=""><dc:format>image/svg+xml</dc:format><dc:type
         rdf:resource="http://purl.org/dc/dcmitype/StillImage" /><dc:title></dc:title></cc:Work></rdf:RDF></metadata><defs
   id="defs31">
	

	
	
	

	
	
	
</defs><sodipodi:namedview
   pagecolor="#ffffff"
   bordercolor="#666666"
   borderopacity="1"
   objecttolerance="10"
   gridtolerance="10"
   guidetolerance="10"
   inkscape:pageopacity="0"
   inkscape:pageshadow="2"
   inkscape:window-width="1858"
   inkscape:window-height="1057"
   id="namedview29"
   showgrid="false"
   inkscape:zoom="1.18"
   inkscape:cx="87.32708"
   inkscape:cy="319.00019"
   inkscape:window-x="54"
   inkscape:window-y="-8"
   inkscape:window-maximized="1"
   inkscape:current-layer="svg27" />



<path
   style="fill:#e6e6e6;fill-rule:evenodd;stroke:#e6e6e6"
   d="M 250.5332 0.5 A 250.03391 250.03391 0 0 0 0.5 250.5332 A 250.03391 250.03391 0 0 0 250.5332 500.56836 A 250.03391 250.03391 0 0 0 500.56836 250.5332 A 250.03391 250.03391 0 0 0 250.5332 0.5 z M 88.330078 115.26562 L 410.13477 115.26562 C 431.72508 115.26562 449.27344 132.85227 449.27344 154.4043 L 449.27344 345.74609 C 449.27344 367.33953 431.68445 384.88477 410.13477 384.88477 L 88.330078 384.88477 C 66.771803 384.88477 49.191406 367.33016 49.191406 345.74609 L 49.191406 154.4043 C 49.191406 132.84446 66.747579 115.26562 88.330078 115.26562 z M 89.384766 141.35742 C 96.018923 147.99158 235.40454 287.37563 240.00781 291.98047 C 245.10806 297.07994 253.35873 297.07994 258.45898 291.98047 C 263.05835 287.38032 402.4428 147.9947 409.08008 141.35742 L 89.384766 141.35742 z M 75.285156 164.15625 L 75.285156 344.69141 L 165.55273 254.42383 L 75.285156 164.15625 z M 423.17969 164.15625 L 332.91406 254.42383 L 423.17969 344.68945 L 423.17969 164.15625 z M 184.00195 272.87305 L 98.082031 358.79297 L 400.38281 358.79297 L 314.46289 272.87305 L 276.9082 310.42969 C 261.6473 325.68981 236.81442 325.68903 221.55664 310.42969 L 184.00195 272.87305 z "
   id="path3720" /><g
   id="g3795"
   transform="matrix(0.78140837,0,0,0.78140837,-302.50255,6.8144316)">
	<g
   id="g3793"
   transform="translate(450.07825,55.310821)">
		
	</g>
</g><g
   id="g3797"
   transform="matrix(0.78140837,0,0,0.78140837,-303.35001,5.1195163)">
</g><g
   id="g3799"
   transform="matrix(0.78140837,0,0,0.78140837,-303.35001,5.1195163)">
</g><g
   id="g3801"
   transform="matrix(0.78140837,0,0,0.78140837,-303.35001,5.1195163)">
</g><g
   id="g3803"
   transform="matrix(0.78140837,0,0,0.78140837,-303.35001,5.1195163)">
</g><g
   id="g3805"
   transform="matrix(0.78140837,0,0,0.78140837,-303.35001,5.1195163)">
</g><g
   id="g3807"
   transform="matrix(0.78140837,0,0,0.78140837,-303.35001,5.1195163)">
</g><g
   id="g3809"
   transform="matrix(0.78140837,0,0,0.78140837,-303.35001,5.1195163)">
</g><g
   id="g3811"
   transform="matrix(0.78140837,0,0,0.78140837,-303.35001,5.1195163)">
</g><g
   id="g3813"
   transform="matrix(0.78140837,0,0,0.78140837,-303.35001,5.1195163)">
</g><g
   id="g3815"
   transform="matrix(0.78140837,0,0,0.78140837,-303.35001,5.1195163)">
</g><g
   id="g3817"
   transform="matrix(0.78140837,0,0,0.78140837,-303.35001,5.1195163)">
</g><g
   id="g3819"
   transform="matrix(0.78140837,0,0,0.78140837,-303.35001,5.1195163)">
</g><g
   id="g3821"
   transform="matrix(0.78140837,0,0,0.78140837,-303.35001,5.1195163)">
</g><g
   id="g3823"
   transform="matrix(0.78140837,0,0,0.78140837,-303.35001,5.1195163)">
</g><g
   id="g3825"
   transform="matrix(0.78140837,0,0,0.78140837,-303.35001,5.1195163)">
</g></svg>