<?xml version="1.0" encoding="UTF-8" standalone="no"?>
<!-- Created with Inkscape (http://www.inkscape.org/) -->

<svg
   xmlns:serif="http://www.serif.com/"
   xmlns:dc="http://purl.org/dc/elements/1.1/"
   xmlns:cc="http://creativecommons.org/ns#"
   xmlns:rdf="http://www.w3.org/1999/02/22-rdf-syntax-ns#"
   xmlns:svg="http://www.w3.org/2000/svg"
   xmlns="http://www.w3.org/2000/svg"
   xmlns:sodipodi="http://sodipodi.sourceforge.net/DTD/sodipodi-0.dtd"
   xmlns:inkscape="http://www.inkscape.org/namespaces/inkscape"
   width="128.25206mm"
   height="147.47859mm"
   viewBox="0 0 128.25206 147.47859"
   version="1.1"
   id="svg8"
   inkscape:version="0.92.4 (5da689c313, 2019-01-14)"
   sodipodi:docname="rysunek-1.svg">
  <defs
     id="defs2" />
  <sodipodi:namedview
     id="base"
     pagecolor="#ffffff"
     bordercolor="#666666"
     borderopacity="1.0"
     inkscape:pageopacity="0.0"
     inkscape:pageshadow="2"
     inkscape:zoom="0.35"
     inkscape:cx="239.50896"
     inkscape:cy="261.55685"
     inkscape:document-units="mm"
     inkscape:current-layer="layer1"
     showgrid="false"
     fit-margin-top="0"
     fit-margin-left="0"
     fit-margin-right="0"
     fit-margin-bottom="0"
     inkscape:window-width="1858"
     inkscape:window-height="1057"
     inkscape:window-x="54"
     inkscape:window-y="-8"
     inkscape:window-maximized="1" />
  <metadata
     id="metadata5">
    <rdf:RDF>
      <cc:Work
         rdf:about="">
        <dc:format>image/svg+xml</dc:format>
        <dc:type
           rdf:resource="http://purl.org/dc/dcmitype/StillImage" />
        <dc:title></dc:title>
      </cc:Work>
    </rdf:RDF>
  </metadata>
  <g
     inkscape:label="Layer 1"
     inkscape:groupmode="layer"
     id="layer1"
     transform="translate(-42.463253,-70.558321)">
    <g
       style="clip-rule:evenodd;fill-rule:evenodd;stroke-linecap:round;stroke-linejoin:round;stroke-miterlimit:1.5"
       id="g232"
       transform="matrix(0.26458333,0,0,0.26458333,27.155702,60.903707)">
      <g
         id="Layer1">
        <g
   id="g12"
   transform="matrix(0.970128,0,0,0.970128,-7.87959,-108.459)">
            <path
   id="path10"
   style="fill:#f0d769;stroke:#000000;stroke-width:15.46000004px"
   d="M 317.588,157.142 559.687,296.917 V 576.469 L 317.588,716.245 75.489,576.469 V 296.917 Z"
   inkscape:connector-curvature="0" />

        </g>

        <g
   id="g16"
   transform="translate(11.6925)">
            <path
   id="path14"
   style="fill:#e06d56"
   d="M 288.206,315.733 515.907,183.945 515.926,446.443 288.522,577.717 Z"
   inkscape:connector-curvature="0" />

        </g>

        <g
   id="g20"
   transform="matrix(1.28534,0,0,0.69485,-34.9477,-60.9506)">
            <path
   id="path18"
   style="fill:#443f6e"
   d="M 260.499,162.689 437.631,352.444 260.499,542.198 83.368,352.444 Z"
   inkscape:connector-curvature="0" />

        </g>

        <g
   id="g78"
   transform="matrix(0.680371,-0.0819841,0.0774151,0.720525,32.5308,67.3808)">
            <g
   id="g24"
   transform="translate(0,20.3601)">
                <path
   id="path22"
   style="fill:#e06d56;fill-opacity:0.43999999"
   d="M 275.723,516.579 C 280.935,513.473 214.153,505.922 172.626,349.164 159.491,299.583 120.4,286.05 72.448,228.802 c -22.113,-26.4 84.437,119.966 96.425,179.906 11.363,56.814 101.638,110.978 106.85,107.871 z"
   inkscape:connector-curvature="0" />

            </g>

            <g
   id="g28"
   transform="matrix(0.324708,-0.138348,0.138348,0.324708,-11.5984,272.824)">
                <path
   id="path26"
   style="fill:#e06d56;fill-opacity:0.43999999"
   d="m 275.723,516.579 c 5.212,-3.106 -65.106,-12.89 -96.425,-172.002 -7.297,-37.071 -58.898,-58.527 -106.85,-115.775 -22.113,-26.4 84.437,119.966 96.425,179.906 11.363,56.814 101.638,110.978 106.85,107.871 z"
   inkscape:connector-curvature="0" />

            </g>

            <g
   id="g32"
   transform="matrix(0.257755,-0.241118,0.241118,0.257755,-41.3078,350.347)">
                <path
   id="path30"
   style="fill:#e06d56;fill-opacity:0.43999999"
   d="m 275.723,516.579 c 5.212,-3.106 -65.106,-12.89 -96.425,-172.002 -7.297,-37.071 -58.898,-58.527 -106.85,-115.775 -22.113,-26.4 84.437,119.966 96.425,179.906 11.363,56.814 101.638,110.978 106.85,107.871 z"
   inkscape:connector-curvature="0" />

            </g>

            <g
   id="g36"
   transform="matrix(0.0755003,-0.205148,0.205148,0.0755003,30.3121,447.212)">
                <path
   id="path34"
   style="fill:#e06d56;fill-opacity:0.43999999"
   d="m 275.723,516.579 c 5.212,-3.106 -65.106,-12.89 -96.425,-172.002 -7.297,-37.071 -58.898,-58.527 -106.85,-115.775 -22.113,-26.4 84.437,119.966 96.425,179.906 11.363,56.814 101.638,110.978 106.85,107.871 z"
   inkscape:connector-curvature="0" />

            </g>

            <g
   id="g40"
   transform="matrix(-0.0128738,-0.132262,0.132262,-0.0128738,97.7385,485.552)">
                <path
   id="path38"
   style="fill:#e06d56;fill-opacity:0.43999999"
   d="m 275.723,516.579 c 5.212,-3.106 -65.106,-12.89 -96.425,-172.002 -7.297,-37.071 -58.898,-58.527 -106.85,-115.775 -22.113,-26.4 84.437,119.966 96.425,179.906 11.363,56.814 101.638,110.978 106.85,107.871 z"
   inkscape:connector-curvature="0" />

            </g>

            <g
   id="g44"
   transform="matrix(0.448589,-0.0448222,0.0448222,0.448589,-2.97854,163.121)">
                <path
   id="path42"
   style="fill:#e06d56;fill-opacity:0.43999999"
   d="m 275.723,516.579 c 5.212,-3.106 -65.106,-12.89 -96.425,-172.002 -7.297,-37.071 -58.898,-58.527 -106.85,-115.775 -22.113,-26.4 84.437,119.966 96.425,179.906 11.363,56.814 101.638,110.978 106.85,107.871 z"
   inkscape:connector-curvature="0" />

            </g>

            <g
   id="g48"
   transform="matrix(0.241945,0.198082,-0.223445,0.199247,326.965,544.633)">
                <path
   id="path46"
   style="fill:#e06d56;fill-opacity:0.43999999"
   d="m 275.723,516.579 c 5.212,-3.106 -65.106,-12.89 -96.425,-172.002 -7.297,-37.071 -58.898,-58.527 -106.85,-115.775 -22.113,-26.4 84.437,119.966 96.425,179.906 11.363,56.814 101.638,110.978 106.85,107.871 z"
   inkscape:connector-curvature="0" />

            </g>

            <g
   id="g52"
   transform="matrix(0.128475,0.171881,-0.196889,0.103346,321.555,564.14)">
                <path
   id="path50"
   style="fill:#e06d56;fill-opacity:0.43999999"
   d="m 275.723,516.579 c 5.212,-3.106 -65.106,-12.89 -96.425,-172.002 -7.297,-37.071 -58.898,-58.527 -106.85,-115.775 -22.113,-26.4 84.437,119.966 96.425,179.906 11.363,56.814 101.638,110.978 106.85,107.871 z"
   inkscape:connector-curvature="0" />

            </g>

            <g
   id="g56"
   transform="matrix(0.016599,0.132519,-0.14845,0.00890834,312.489,583.508)">
                <path
   id="path54"
   style="fill:#e06d56;fill-opacity:0.43999999"
   d="m 275.723,516.579 c 5.212,-3.106 -65.106,-12.89 -96.425,-172.002 -7.297,-37.071 -58.898,-58.527 -106.85,-115.775 -22.113,-26.4 84.437,119.966 96.425,179.906 11.363,56.814 101.638,110.978 106.85,107.871 z"
   inkscape:connector-curvature="0" />

            </g>

            <g
   id="g60"
   transform="matrix(-0.0550686,0.122448,-0.139654,-0.0493933,325.684,587.295)">
                <path
   id="path58"
   style="fill:#e06d56;fill-opacity:0.43999999"
   d="m 275.723,516.579 c 5.212,-3.106 -65.106,-12.89 -96.425,-172.002 -7.297,-37.071 -58.898,-58.527 -106.85,-115.775 -22.113,-26.4 84.437,119.966 96.425,179.906 11.363,56.814 101.638,110.978 106.85,107.871 z"
   inkscape:connector-curvature="0" />

            </g>

            <g
   id="g64"
   transform="matrix(0.104097,-0.0813541,0.0813541,0.104097,134.674,452.964)">
                <path
   id="path62"
   style="fill:#e06d56;fill-opacity:0.43999999"
   d="m 275.723,516.579 c 5.212,-3.106 -65.106,-12.89 -96.425,-172.002 -7.297,-37.071 -58.898,-58.527 -106.85,-115.775 -22.113,-26.4 84.437,119.966 96.425,179.906 11.363,56.814 101.638,110.978 106.85,107.871 z"
   inkscape:connector-curvature="0" />

            </g>

            <g
   id="g68"
   transform="matrix(0.0803529,-0.0892956,0.0892956,0.0803529,151.666,482.706)">
                <path
   id="path66"
   style="fill:#e06d56;fill-opacity:0.43999999"
   d="m 275.723,516.579 c 5.212,-3.106 -65.106,-12.89 -96.425,-172.002 -7.297,-37.071 -47.249,-40.75 -95.201,-97.998 -22.113,-26.4 72.788,102.189 84.776,162.129 11.363,56.814 101.638,110.978 106.85,107.871 z"
   inkscape:connector-curvature="0" />

            </g>

            <g
   id="g72"
   transform="matrix(0.058764,-0.0878896,0.0878896,0.058764,173.444,506.111)">
                <path
   id="path70"
   style="fill:#e06d56;fill-opacity:0.43999999"
   d="m 275.723,516.579 c 5.212,-3.106 -65.106,-12.89 -96.425,-172.002 -7.297,-37.071 -25.666,-8.824 -73.618,-66.072 -22.113,-26.4 51.205,70.263 63.193,130.203 11.363,56.814 101.638,110.978 106.85,107.871 z"
   inkscape:connector-curvature="0" />

            </g>

            <g
   id="g76"
   transform="matrix(0.0319121,-0.0724186,0.0724186,0.0319121,205.457,528.184)">
                <path
   id="path74"
   style="fill:#e06d56;fill-opacity:0.43999999"
   d="m 275.723,516.579 c 5.212,-3.106 -65.106,-12.89 -96.425,-172.002 -7.297,-37.071 -9.7,1.023 -57.652,-56.225 -22.113,-26.4 35.239,60.416 47.227,120.356 11.363,56.814 101.638,110.978 106.85,107.871 z"
   inkscape:connector-curvature="0" />

            </g>

        </g>

        <g
   id="g136"
   transform="matrix(-0.680371,-0.0819841,-0.0774151,0.720525,565.048,67.3808)">
            <g
   id="g82"
   transform="translate(0,20.3601)">
                <path
   id="path80"
   style="fill:#f0d769;fill-opacity:0.43999999"
   d="M 275.723,516.579 C 280.935,513.473 214.153,505.922 172.626,349.164 159.491,299.583 120.4,286.05 72.448,228.802 c -22.113,-26.4 84.437,119.966 96.425,179.906 11.363,56.814 101.638,110.978 106.85,107.871 z"
   inkscape:connector-curvature="0" />

            </g>

            <g
   id="g86"
   transform="matrix(0.00880271,0.132818,-0.149062,0.00251679,311.966,585.177)">
                <path
   id="path84"
   style="fill:#f0d769;fill-opacity:0.43999999"
   d="m 275.723,516.579 c 5.212,-3.106 -65.106,-12.89 -96.425,-172.002 -7.297,-37.071 -58.898,-58.527 -106.85,-115.775 -22.113,-26.4 84.437,119.966 96.425,179.906 11.363,56.814 101.638,110.978 106.85,107.871 z"
   inkscape:connector-curvature="0" />

            </g>

            <g
   id="g90"
   transform="matrix(0.118425,0.176854,-0.203092,0.0945847,322.177,566.257)">
                <path
   id="path88"
   style="fill:#f0d769;fill-opacity:0.43999999"
   d="m 275.723,516.579 c 5.212,-3.106 -65.106,-12.89 -96.425,-172.002 -7.297,-37.071 -58.898,-58.527 -106.85,-115.775 -22.113,-26.4 84.437,119.966 96.425,179.906 11.363,56.814 101.638,110.978 106.85,107.871 z"
   inkscape:connector-curvature="0" />

            </g>

            <g
   id="g94"
   transform="matrix(-0.0550686,0.122448,-0.139654,-0.0493933,321.821,586.855)">
                <path
   id="path92"
   style="fill:#f0d769;fill-opacity:0.43999999"
   d="m 275.723,516.579 c 5.212,-3.106 -65.106,-12.89 -96.425,-172.002 -7.297,-37.071 -58.898,-58.527 -106.85,-115.775 -22.113,-26.4 84.437,119.966 96.425,179.906 11.363,56.814 101.638,110.978 106.85,107.871 z"
   inkscape:connector-curvature="0" />

            </g>

            <g
   id="g98"
   transform="matrix(0.324708,-0.138348,0.138348,0.324708,-11.5984,272.824)">
                <path
   id="path96"
   style="fill:#f0d769;fill-opacity:0.43999999"
   d="m 275.723,516.579 c 5.212,-3.106 -65.106,-12.89 -96.425,-172.002 -7.297,-37.071 -58.898,-58.527 -106.85,-115.775 -22.113,-26.4 84.437,119.966 96.425,179.906 11.363,56.814 101.638,110.978 106.85,107.871 z"
   inkscape:connector-curvature="0" />

            </g>

            <g
   id="g102"
   transform="matrix(0.230419,0.207837,-0.235313,0.189049,328.74,547.043)">
                <path
   id="path100"
   style="fill:#f0d769;fill-opacity:0.43999999"
   d="m 275.723,516.579 c 5.212,-3.106 -65.106,-12.89 -96.425,-172.002 -7.297,-37.071 -58.898,-58.527 -106.85,-115.775 -22.113,-26.4 84.437,119.966 96.425,179.906 11.363,56.814 101.638,110.978 106.85,107.871 z"
   inkscape:connector-curvature="0" />

            </g>

            <g
   id="g106"
   transform="matrix(0.257755,-0.241118,0.241118,0.257755,-41.3078,350.347)">
                <path
   id="path104"
   style="fill:#f0d769;fill-opacity:0.43999999"
   d="m 275.723,516.579 c 5.212,-3.106 -65.106,-12.89 -96.425,-172.002 -7.297,-37.071 -58.898,-58.527 -106.85,-115.775 -22.113,-26.4 84.437,119.966 96.425,179.906 11.363,56.814 101.638,110.978 106.85,107.871 z"
   inkscape:connector-curvature="0" />

            </g>

            <g
   id="g110"
   transform="matrix(0.0755003,-0.205148,0.205148,0.0755003,30.3121,447.212)">
                <path
   id="path108"
   style="fill:#f0d769;fill-opacity:0.43999999"
   d="m 275.723,516.579 c 5.212,-3.106 -65.106,-12.89 -96.425,-172.002 -7.297,-37.071 -58.898,-58.527 -106.85,-115.775 -22.113,-26.4 84.437,119.966 96.425,179.906 11.363,56.814 101.638,110.978 106.85,107.871 z"
   inkscape:connector-curvature="0" />

            </g>

            <g
   id="g114"
   transform="matrix(-0.0128738,-0.132262,0.132262,-0.0128738,97.7385,485.552)">
                <path
   id="path112"
   style="fill:#f0d769;fill-opacity:0.43999999"
   d="m 275.723,516.579 c 5.212,-3.106 -65.106,-12.89 -96.425,-172.002 -7.297,-37.071 -58.898,-58.527 -106.85,-115.775 -22.113,-26.4 84.437,119.966 96.425,179.906 11.363,56.814 101.638,110.978 106.85,107.871 z"
   inkscape:connector-curvature="0" />

            </g>

            <g
   id="g118"
   transform="matrix(0.448589,-0.0448222,0.0448222,0.448589,-2.97854,163.121)">
                <path
   id="path116"
   style="fill:#f0d769;fill-opacity:0.43999999"
   d="m 275.723,516.579 c 5.212,-3.106 -65.106,-12.89 -96.425,-172.002 -7.297,-37.071 -58.898,-58.527 -106.85,-115.775 -22.113,-26.4 84.437,119.966 96.425,179.906 11.363,56.814 101.638,110.978 106.85,107.871 z"
   inkscape:connector-curvature="0" />

            </g>

            <g
   id="g122"
   transform="matrix(0.104097,-0.0813541,0.0813541,0.104097,134.674,452.964)">
                <path
   id="path120"
   style="fill:#f0d769;fill-opacity:0.43999999"
   d="m 275.723,516.579 c 5.212,-3.106 -65.106,-12.89 -96.425,-172.002 -7.297,-37.071 -58.898,-58.527 -106.85,-115.775 -22.113,-26.4 84.437,119.966 96.425,179.906 11.363,56.814 101.638,110.978 106.85,107.871 z"
   inkscape:connector-curvature="0" />

            </g>

            <g
   id="g126"
   transform="matrix(0.0803529,-0.0892956,0.0892956,0.0803529,151.666,482.706)">
                <path
   id="path124"
   style="fill:#f0d769;fill-opacity:0.43999999"
   d="m 275.723,516.579 c 5.212,-3.106 -65.106,-12.89 -96.425,-172.002 -7.297,-37.071 -47.249,-40.75 -95.201,-97.998 -22.113,-26.4 72.788,102.189 84.776,162.129 11.363,56.814 101.638,110.978 106.85,107.871 z"
   inkscape:connector-curvature="0" />

            </g>

            <g
   id="g130"
   transform="matrix(0.058764,-0.0878896,0.0878896,0.058764,173.444,506.111)">
                <path
   id="path128"
   style="fill:#f0d769;fill-opacity:0.43999999"
   d="m 275.723,516.579 c 5.212,-3.106 -65.106,-12.89 -96.425,-172.002 -7.297,-37.071 -25.666,-8.824 -73.618,-66.072 -22.113,-26.4 51.205,70.263 63.193,130.203 11.363,56.814 101.638,110.978 106.85,107.871 z"
   inkscape:connector-curvature="0" />

            </g>

            <g
   id="g134"
   transform="matrix(0.0319121,-0.0724186,0.0724186,0.0319121,205.457,528.184)">
                <path
   id="path132"
   style="fill:#f0d769;fill-opacity:0.43999999"
   d="m 275.723,516.579 c 5.212,-3.106 -65.106,-12.89 -96.425,-172.002 -7.297,-37.071 -9.7,1.023 -57.652,-56.225 -22.113,-26.4 35.239,60.416 47.227,120.356 11.363,56.814 101.638,110.978 106.85,107.871 z"
   inkscape:connector-curvature="0" />

            </g>

        </g>

        <g
   id="g140"
   transform="translate(12.2169,0.0124351)">
            <path
   id="path138"
   style="fill:#bf4e64"
   d="m 287.762,52.341 0.427,-0.247 227.673,131.851 -227.673,131.851 -0.427,-0.247 z"
   inkscape:connector-curvature="0" />

        </g>

    </g>
      <g
         transform="matrix(1.10684,0,0,1.09099,-29.5605,-24.6207)"
         serif:id="Layer 1"
         id="Layer-1">
        <g
   id="g145"
   transform="matrix(0.870175,0,0,0.886975,32.985,34.0588)">
            <path
   id="path143"
   d="M 304.5,600 C 281.445,440.222 265.607,415.3 246.006,360.953 c -1.612,-4.471 80.437,-42.383 -9.173,-81.31 -7.257,-3.152 -22.517,-7.505 -22.517,-7.505 0,0 -75.263,-26.087 -94.552,-36.536 C 63.812,205.29 65.647,178.735 65.647,178.735 L 80.923,161.17 c 0,0 22.457,76.172 171.832,76.172 28.262,0 51.712,-50.118 51.712,-50.118 h 0.033 c 2.549,2.906 6.066,402.304 -0.033,412.776 z"
   inkscape:connector-curvature="0" />

        </g>

        <g
   id="g149"
   transform="matrix(-0.870175,0,0,0.886975,562.92,34.0588)">
            <path
   id="path147"
   d="M 304.5,600 C 281.445,440.222 265.607,415.3 246.006,360.953 c -1.612,-4.471 80.437,-42.383 -9.173,-81.31 -7.257,-3.152 -22.517,-7.505 -22.517,-7.505 0,0 -75.263,-26.087 -94.552,-36.536 C 63.812,205.29 65.647,178.735 65.647,178.735 l 13.216,-17.223 c 0,0 24.587,71.166 173.892,75.83 20.911,0.653 51.712,-50.118 51.712,-50.118 h 0.033 c 2.549,2.906 6.066,402.304 -0.033,412.776 z"
   inkscape:connector-curvature="0" />

        </g>

    </g>
    </g>
  </g>
</svg>
